<svg width="110" height="100" viewBox="0 0 110 100" fill="none" xmlns="http://www.w3.org/2000/svg">
<path opacity="0.6" d="M60 100C87.6142 100 110 77.6142 110 50C110 22.3858 87.6142 0 60 0C32.3858 0 10 22.3858 10 50C10 77.6142 32.3858 100 60 100Z" fill="#E8329F"/>
<path d="M10.2 65.18C12 74.78 17.96 83.74 26.65 88.2C37.9 93.9699 52.08 91.47 62.66 84.55C71.06 79.06 78.13 69.34 75.85 59.57C74.29 58.37 74.18 53.28 71.17 55.98C67.37 62.03 62.72 68.35 55.81 70.17C48.01 72.22 39.4 67.31 35.97 60.01C32.54 52.7099 33.77 43.8 37.83 36.83C39.1 34.65 40.46 31.46 38.38 30.03C37.49 29.42 36.3 29.49 35.23 29.65C26.95 30.91 19.35 36.06 15.11 43.28C15.11 43.29 8.40997 55.58 10.2 65.18Z" fill="white"/>
<path d="M7.91 58.85C8.69 66.87 12.1 74.69 17.97 80.29C24.02 86.08 32.26 88.7 40.55 88.47C48.68 88.25 57.29 85.58 63.7 80.5C69.7 75.74 74.69 68.27 74.93 60.41C75 58.17 74.76 53.81 71.42 54.31C69.57 54.59 68.61 56.37 67.52 57.69C66.13 59.37 64.66 60.98 63.04 62.44C59.82 65.34 55.84 67.64 51.41 67.75C47.23 67.85 43.17 66.07 40.1 63.3C33.36 57.25 32.54 47.62 35.75 39.52C36.55 37.5 37.6 35.56 38.85 33.78C39.96 32.19 41.45 30.83 41.33 28.74C41.11 24.67 36.77 25.14 33.87 25.6C26.44 26.78 19.13 31.06 14.87 37.34C11.67 42.05 9.16 47.78 8.21 53.38C7.89 55.2 7.77 57.02 7.91 58.85C7.96 59.52 9.01 59.52 8.96 58.85C8.42 52.16 11.33 45.42 14.62 39.75C17.7 34.45 22.66 30.39 28.37 28.19C30.17 27.49 32.04 26.98 33.95 26.67C35.49 26.42 38.35 25.76 39.61 27.06C41.5 29.02 39.32 31.36 38.17 32.96C37.03 34.55 36.05 36.26 35.25 38.06C32.23 44.84 31.72 53.14 35.7 59.66C39.26 65.5 46.13 69.65 53.1 68.69C56.79 68.18 60.09 66.34 62.92 63.98C64.43 62.71 65.82 61.3 67.12 59.82C67.78 59.08 68.41 58.31 69.03 57.54C69.66 56.76 70.25 55.75 71.27 55.44C75.1 54.3 73.77 62.46 73.39 64.1C72.49 67.94 70.6 71.52 68.16 74.6C63.07 81.03 55.65 84.87 47.72 86.57C39.76 88.28 31.09 87.63 23.95 83.49C16.99 79.45 12.16 72.41 10.05 64.72C9.52 62.8 9.17 60.84 8.98 58.86C8.9 58.18 7.85 58.18 7.91 58.85Z" fill="#1B1D2E"/>
<path d="M45.47 31.66C45.5 32.98 45.27 34.3 44.75 35.52L6.46998 49.43C5.81998 45.78 6.36998 42 7.52998 38.48C10.84 28.5 18.9 20.7 27.94 15.33C31.03 13.49 34.41 11.85 38 11.81C42.58 11.76 46.86 14.34 49.91 17.76C52.96 21.17 54.96 25.37 56.93 29.5L56.85 31C53.72 33.53 48.81 33.53 45.68 31.01L45.47 31.66Z" fill="#8ACCC9"/>
<path d="M44.83 31.6601C44.83 32.9601 44.61 34.1501 44.13 35.3501C44.28 35.2001 44.43 35.0501 44.58 34.9001C33.41 38.9601 22.23 43.0201 11.06 47.0801C9.46998 47.6601 7.88998 48.2301 6.29998 48.8101C6.55998 48.9601 6.82998 49.1101 7.08998 49.2601C5.32998 38.4901 12.61 28.0601 20.41 21.4401C24.33 18.1101 29.02 14.7401 33.96 13.1601C39.41 11.4201 44.71 13.4201 48.64 17.3501C50.8 19.5101 52.45 22.1201 53.89 24.8101C54.64 26.2001 55.26 27.6501 56 29.0401C56.35 29.7001 56.24 30.2401 56.2 30.9901C56.31 30.8001 56.41 30.6201 56.52 30.4301C53.43 32.8201 49.1 32.8201 46 30.4401C45.65 30.1701 45.16 30.4701 45.05 30.8301C44.98 31.0501 44.91 31.2701 44.84 31.4901C44.59 32.2801 45.83 32.6201 46.08 31.8301C46.15 31.6101 46.22 31.3901 46.29 31.1701C45.97 31.3001 45.66 31.4301 45.34 31.5601C47.61 33.3101 50.57 33.9001 53.36 33.3201C54.58 33.0601 56.39 32.4901 57.23 31.5101C57.6 31.0701 57.63 30.1101 57.56 29.5501C57.49 29.0101 57.15 28.5101 56.92 28.0201C56.49 27.1101 56.05 26.2101 55.59 25.3201C54.78 23.7301 53.91 22.1601 52.92 20.6701C51.09 17.9101 48.85 15.4101 46.03 13.6301C43.33 11.9201 40.13 10.9301 36.91 11.2401C33.41 11.5801 30.22 13.2001 27.25 14.9801C21.64 18.3601 16.49 22.6101 12.5 27.8301C7.83998 33.9301 4.53998 41.8301 5.81998 49.6101C5.86998 49.9401 6.30998 50.1701 6.60998 50.0601C11.33 48.3501 16.05 46.6301 20.76 44.9201C27.76 42.3801 34.76 39.8301 41.77 37.2901C42.67 36.9601 43.58 36.6401 44.48 36.3001C46.1 35.7001 46.09 33.1601 46.09 31.6701C46.12 30.8301 44.83 30.8301 44.83 31.6601Z" fill="#1B1D2E"/>
<path d="M59.83 33.79C61.42 33.83 62.63 32.32 63.35 30.9C63.96 29.7 64.31 28.16 63.51 27.07C62.66 25.93 60.94 25.87 59.59 26.32C57.71 26.95 55.95 29.01 56.87 30.76C56.87 30.77 57.2 33.72 59.83 33.79Z" fill="white"/>
<path d="M59.83 34.44C61.36 34.45 62.54 33.37 63.36 32.17C64.2 30.93 64.86 29.34 64.54 27.82C64.22 26.31 62.84 25.5 61.39 25.43C59.96 25.36 58.55 25.91 57.48 26.84C56.26 27.91 55.56 29.57 56.32 31.1C56.29 30.99 56.26 30.88 56.23 30.77C56.3 31.42 56.51 32.06 56.84 32.63C57.47 33.74 58.55 34.38 59.83 34.44C60.66 34.47 60.66 33.18 59.83 33.15C59.26 33.13 58.76 32.93 58.38 32.56C58.18 32.37 58.12 32.28 57.98 32.05C57.92 31.94 57.86 31.83 57.8 31.72C57.8 31.73 57.72 31.55 57.76 31.63C57.79 31.69 57.72 31.52 57.71 31.5C57.61 31.23 57.59 30.93 57.49 30.66C57.46 30.59 57.59 30.95 57.5 30.7C57.43 30.52 57.36 30.33 57.31 30.15C57.22 29.82 57.26 29.49 57.37 29.17C57.85 27.75 59.47 26.82 60.91 26.74C61.56 26.7 62.28 26.8 62.78 27.26C63.39 27.81 63.4 28.69 63.22 29.43C63 30.34 62.53 31.22 61.94 31.94C61.4 32.59 60.71 33.17 59.82 33.17C59 33.14 58.99 34.43 59.83 34.44Z" fill="#1B1D2E"/>
<path d="M16.75 43.3201C24.95 40.1401 31.84 34.1401 37.78 27.6501C38.33 27.0501 38.87 26.4301 39.21 25.6901C39.9 24.1901 39.61 22.3001 38.5 21.0801C39.12 20.8301 39.76 21.3501 40.21 21.8501C41.79 23.6001 43.17 25.5701 44.04 27.7701C44.91 29.9701 45.24 32.4101 44.74 34.7201L16.75 43.3201Z" fill="#E1EFEF"/>
<path d="M42.11 25.6402C42.6 26.3002 43.1 26.9602 43.43 27.7102C43.79 28.5102 44.03 29.3402 44.42 30.1202C44.85 30.9702 44.74 31.8402 44.58 32.7502C44.42 33.6602 44.17 34.5402 43.86 35.4102C43.58 36.1902 44.82 36.5302 45.1 35.7502C45.45 34.8002 45.71 33.8202 45.87 32.8102C46.02 31.8602 46.13 30.8802 45.76 29.9602C45.59 29.5302 45.35 29.1402 45.18 28.7102C45 28.2702 44.86 27.8102 44.68 27.3702C44.32 26.5002 43.78 25.7402 43.22 24.9802C42.74 24.3302 41.62 24.9802 42.11 25.6402Z" fill="#1B1D2E"/>
<path d="M4.87998 53.9102C5.37998 53.8902 11.07 51.0602 13.63 50.3002C24.4 47.1102 47.13 40.3702 47.44 39.8602C47.65 39.5102 47.71 33.7302 47.06 33.5902C46.68 33.5002 38.82 36.7902 35.06 37.7102C23.58 40.5302 12.38 44.4502 1.63998 49.3902C1.64998 49.3902 3.37998 53.9802 4.87998 53.9102Z" fill="white"/>
<path d="M5.04999 54.5401C6.03999 54.3901 7.09999 53.7101 7.99999 53.3001C9.62999 52.5701 11.25 51.8201 12.93 51.2101C15.94 50.1301 19.09 49.3501 22.15 48.4401C28.88 46.4401 35.61 44.4401 42.3 42.3201C43.99 41.7901 45.86 41.3601 47.45 40.5701C47.96 40.3201 48.09 40.0401 48.16 39.4601C48.31 38.1601 48.26 36.8001 48.17 35.5001C48.12 34.7901 48.15 33.3001 47.31 32.9801C46.65 32.7301 45.56 33.3601 44.97 33.5801C41.82 34.7401 38.7 36.0301 35.46 36.9201C29.71 38.5001 23.99 40.0001 18.35 41.9601C12.56 43.9701 6.87999 46.2601 1.31999 48.8201C1.07999 48.9301 0.929991 49.3001 1.01999 49.5501C1.63999 51.1901 2.77999 54.4301 4.86999 54.5501C5.69999 54.6001 5.69999 53.3101 4.86999 53.2601C4.06999 53.2101 3.36999 51.5901 3.06999 51.0001C2.76999 50.4201 2.49999 49.8201 2.25999 49.2101C2.15999 49.4501 2.05999 49.7001 1.95999 49.9401C11.36 45.6201 21.11 42.0801 31.1 39.3801C34.71 38.4001 38.24 37.4501 41.75 36.1501C43.13 35.6401 44.51 35.1101 45.89 34.6101C46.11 34.5301 46.79 34.4201 46.95 34.2501C47.1 34.0801 46.65 34.0901 46.65 34.0901C46.62 34.1301 46.79 34.7501 46.8 34.8201C46.97 36.0901 46.96 37.4101 46.91 38.6901C46.9 38.9101 46.84 39.1801 46.87 39.4001C46.91 39.7001 46.73 39.5701 46.97 39.4001C47.17 39.2701 46.82 39.4501 46.77 39.4601C45.04 39.9101 43.32 40.6401 41.61 41.1801C35.33 43.1601 29.01 45.0401 22.7 46.9201C19.48 47.8801 16.22 48.7401 13.03 49.8001C11.36 50.3501 9.74999 51.1001 8.13999 51.8101C7.08999 52.2801 5.84999 53.1001 4.68999 53.2701C3.88999 53.4101 4.23999 54.6501 5.04999 54.5401Z" fill="#1B1D2E"/>
<path d="M71.14 7.68993C75.1 7.56993 79.08 7.80993 83 8.42993C82.93 7.87993 82.86 7.32993 82.79 6.78993C79.23 8.97993 75.67 11.1799 72.11 13.3699C71.45 13.7799 71.57 14.7899 72.32 15.0099C75.59 15.9699 78.86 16.9299 82.13 17.8899C83.24 18.2199 83.72 16.4799 82.61 16.1499C79.34 15.1899 76.07 14.2299 72.8 13.2699C72.87 13.8199 72.94 14.3699 73.01 14.9099C76.57 12.7199 80.13 10.5199 83.69 8.32993C84.29 7.95993 84.28 6.80993 83.48 6.68993C79.4 6.04993 75.27 5.76993 71.14 5.88993C69.98 5.92993 69.98 7.72993 71.14 7.68993Z" fill="white"/>
<path d="M103.21 24.1699C104.93 25.1399 106.65 26.1199 108.37 27.0899C108.44 26.5399 108.51 25.9899 108.58 25.4499C105.29 26.3799 102 27.3199 98.71 28.2499C97.88 28.4899 97.83 29.7799 98.71 29.9899C101.12 30.5599 103.43 31.4399 105.6 32.6399C106.61 33.1999 107.52 31.6499 106.51 31.0899C104.21 29.8199 101.75 28.8599 99.19 28.2599C99.19 28.8399 99.19 29.4199 99.19 29.9999C102.48 29.0699 105.77 28.1299 109.06 27.1999C109.79 26.9899 109.96 25.9399 109.27 25.5599C107.55 24.5899 105.83 23.6099 104.11 22.6399C103.11 22.0399 102.2 23.5999 103.21 24.1699Z" fill="white"/>
<path d="M87.33 13.17C90.76 14.23 94.12 15.5 97.38 16.99C97.38 16.47 97.38 15.95 97.38 15.44C92.29 17.82 87.19 20.21 82.1 22.59C81.39 22.92 81.6 24.06 82.31 24.23C86.1 25.13 89.78 26.4 93.3 28.06C94.34 28.55 95.26 27 94.21 26.51C90.55 24.78 86.73 23.43 82.79 22.5C82.86 23.05 82.93 23.6 83 24.14C88.09 21.76 93.19 19.37 98.28 16.99C98.87 16.72 98.87 15.71 98.28 15.44C94.87 13.88 91.38 12.54 87.8 11.44C86.7 11.1 86.23 12.83 87.33 13.17Z" fill="white"/>
</svg>
