<svg width="146" height="19" viewBox="0 0 146 19" fill="none" xmlns="http://www.w3.org/2000/svg">
<path fill-rule="evenodd" clip-rule="evenodd" d="M12.0503 5.56846C11.3862 3.96077 10.1445 3.15692 8.32535 3.15692C7.127 3.15692 5.46664 3.65385 5.46664 5.13C5.46664 7.03 8.31091 7.61462 9.71139 7.87769C12.9166 8.49154 16.1507 9.51462 16.1507 13.3877C16.1507 17.3923 12.238 18.9854 8.87399 18.9854C7.127 19 5.39445 18.5615 3.86403 17.6992C2.31918 16.8662 1.20746 15.4046 0.5 13.3731L3.92179 12.3062C4.77362 14.4546 6.46286 15.7554 8.96062 15.7554C10.3178 15.7554 12.5845 15.3023 12.5845 13.5338C12.5701 11.5315 9.88465 11.1077 8.41198 10.9031C4.09504 10.2454 1.92935 8.31615 1.92935 5.11539C1.92935 1.57846 5.5244 0 8.51304 0C11.6172 0 14.3027 1.47615 15.3422 4.54538L12.0503 5.56846Z" fill="black"/>
<path fill-rule="evenodd" clip-rule="evenodd" d="M18.4608 18.7369V0.263062H21.7959V8.47691C22.5756 6.81075 24.0916 5.97768 25.8819 5.97768C28.7694 5.97768 30.4154 7.84845 30.4154 10.7277V18.7515H27.1091V11.5023C27.1091 9.83614 26.3006 8.7546 24.5824 8.7546C22.6478 8.7546 21.7959 10.4938 21.7959 12.2331V18.7223L18.4608 18.7369Z" fill="black"/>
<path d="M32.6966 12.54C32.6966 8.93 35.0355 5.96307 38.6883 5.96307C40.2043 5.96307 41.8646 6.54769 42.6443 7.93615V6.22615H45.9794V18.7369H42.7742V16.8954C41.8646 18.2985 40.5363 19 38.7316 19C34.9922 19 32.6966 16.1208 32.6966 12.54ZM42.7742 12.54C42.7742 10.4792 41.4171 8.87154 39.3524 8.87154C37.2734 8.87154 36.0173 10.5669 36.0173 12.54C36.0173 14.5131 37.3744 16.1354 39.3524 16.1354C41.4315 16.1208 42.7887 14.5423 42.7742 12.54Z" fill="black"/>
<path fill-rule="evenodd" clip-rule="evenodd" d="M52.4476 6.22615V7.83384C52.9963 6.59153 54.0935 5.96307 55.4218 5.96307C57.6453 5.96307 58.9736 7.46846 58.9736 9.66076C58.9736 10.1869 58.9158 10.7131 58.7859 11.2246H55.6384C55.7106 10.9177 55.7539 10.5961 55.7395 10.2746C55.7395 9.29538 55.1186 8.71077 54.1802 8.71077C52.9818 8.71077 52.4621 9.55846 52.4621 10.6838V18.7369H49.1269V6.22615H52.4476Z" fill="black"/>
<path d="M69.5133 13.9577L72.3575 15.0977C71.4191 17.7138 69.3111 19 66.5968 19C62.6552 19 60.0564 16.2815 60.0564 12.4085C60.0564 8.74 62.5831 5.96307 66.207 5.96307C69.6432 5.96307 71.9388 8.12615 71.9388 11.59C71.9388 12.1015 71.8955 12.6131 71.78 13.1246H63.3916C63.4493 14.9954 64.8498 16.1061 66.6545 16.1061C68.1705 16.0915 69.1379 15.39 69.5133 13.9577ZM63.3916 10.8738H68.6759L68.7047 10.7715C68.7192 10.1869 68.4737 9.61692 68.0262 9.23692C67.5497 8.87154 66.9577 8.68154 66.207 8.68154C64.8642 8.68154 63.7092 9.5 63.3916 10.8738Z" fill="black"/>
<path d="M95.5159 12.54C95.5159 8.93 97.8549 5.96307 101.508 5.96307C103.024 5.96307 104.684 6.54769 105.464 7.93615V6.22615H108.799V18.7369H105.608V16.8954C104.698 18.2985 103.37 19 101.565 19C97.8116 19 95.5159 16.1208 95.5159 12.54ZM105.608 12.54C105.608 10.4792 104.251 8.87154 102.186 8.87154C100.107 8.87154 98.8511 10.5669 98.8511 12.54C98.8511 14.5131 100.208 16.1354 102.186 16.1354C104.251 16.1208 105.608 14.5423 105.608 12.54Z" fill="black"/>
<path fill-rule="evenodd" clip-rule="evenodd" d="M113.708 14.5131V8.98846H111.152V6.22615H113.708V2.10461H117.014V6.22615H121.649V8.98846H117.014V14.4985C117.014 15.39 117.505 16.0038 118.429 16.0038C119.295 16.0038 119.786 15.4192 119.887 14.2646L122.962 14.8492C122.601 17.4508 120.984 19 118.342 19C115.527 19 113.708 17.4508 113.708 14.5131Z" fill="black"/>
<path d="M133.805 13.9577L136.65 15.0977C135.711 17.7138 133.603 19 130.889 19C126.947 19 124.348 16.2815 124.348 12.4085C124.348 8.74 126.875 5.96307 130.499 5.96307C133.935 5.96307 136.231 8.12615 136.231 11.59C136.231 12.1015 136.188 12.6131 136.072 13.1246H127.684C127.727 14.9954 129.142 16.1061 130.947 16.1061C132.448 16.1061 133.415 15.39 133.805 13.9577ZM127.684 10.8738H132.968L132.997 10.7715C133.011 10.1869 132.766 9.61692 132.318 9.23692C131.842 8.87154 131.25 8.68154 130.499 8.68154C129.127 8.68154 127.987 9.5 127.684 10.8738Z" fill="black"/>
<path fill-rule="evenodd" clip-rule="evenodd" d="M145.5 5.89C145.5 7.6 144.143 8.97385 142.454 8.97385C140.764 8.97385 139.407 7.6 139.407 5.89C139.407 4.18 140.764 2.80615 142.454 2.80615C144.128 2.80615 145.5 4.19461 145.5 5.89Z" fill="black"/>
<path fill-rule="evenodd" clip-rule="evenodd" d="M144.504 14.0747C144.504 15.2293 143.58 16.15 142.454 16.15C141.327 16.15 140.403 15.2147 140.403 14.0747C140.403 12.9347 141.327 11.9993 142.454 11.9993C143.002 11.9993 143.522 12.2185 143.912 12.6131C144.302 13.0077 144.504 13.5193 144.504 14.0747Z" fill="black"/>
<path fill-rule="evenodd" clip-rule="evenodd" d="M83.287 12.0577H88.5857C88.1382 14.2938 86.0013 15.6969 83.8212 15.6969C80.2984 15.6969 78.0316 13.0515 78.0316 9.5C78.0316 6.06538 80.3272 3.30308 83.8645 3.30308C86.0302 3.30308 87.6906 4.18 88.6146 5.86077L92.0653 4.77923C90.5926 1.54923 87.5462 0 83.8357 0C78.5658 0 74.451 4.06308 74.451 9.5C74.451 14.8054 78.0749 19 83.518 19C86.4634 19 88.8312 17.7138 90.0151 14.9077V18.7369H92.9171V8.97385H83.3015L83.287 12.0577Z" fill="black"/>
</svg>
