<svg width="104" height="100" viewBox="0 0 104 100" fill="none" xmlns="http://www.w3.org/2000/svg">
<path d="M50.84 100C78.4542 100 100.84 77.6142 100.84 50C100.84 22.3858 78.4542 0 50.84 0C23.2258 0 0.839996 22.3858 0.839996 50C0.839996 77.6142 23.2258 100 50.84 100Z" fill="#FCB736"/>
<path d="M54.63 30.7599C50.07 34.1599 48.67 41.0399 51.31 46.0799C52.5 48.3499 54.4 50.2299 56.68 51.4099C61.68 53.9899 68.43 52.6399 71.97 48.2599C80.97 37.1299 65.54 22.6299 54.63 30.7599Z" fill="white"/>
<path d="M50.33 61.5299C58.57 56.5099 69.65 56.2599 77.8 61.4199C85.95 66.5799 90.49 77.1099 88.1 86.4499C87.73 87.8499 46.31 86.3899 42.34 86.0399C28.59 84.8199 44.79 64.9099 50.33 61.5299Z" fill="white"/>
<path d="M87.24 86.2599C88.17 81.5999 87.24 57.3599 63 57.3599C38.76 57.3599 35.96 84.3999 35.96 84.3999" stroke="#010202" stroke-width="1.8283" stroke-miterlimit="10" stroke-linecap="round" stroke-dasharray="4.66 4.66"/>
<path d="M62.06 53.16C69.2673 53.16 75.11 47.5232 75.11 40.57C75.11 33.6167 69.2673 27.98 62.06 27.98C54.8527 27.98 49.01 33.6167 49.01 40.57C49.01 47.5232 54.8527 53.16 62.06 53.16Z" stroke="#010202" stroke-width="1.8283" stroke-miterlimit="10" stroke-linecap="round" stroke-dasharray="4.58 4.58"/>
<path d="M23.38 68.1999C23.38 68.1999 24.81 54.3999 37.18 54.3999C40.27 54.3999 42.62 55.1699 44.4 56.3699" stroke="#010202" stroke-width="1.4575" stroke-miterlimit="10" stroke-linecap="round" stroke-dasharray="3.72 3.72"/>
<path d="M36.7 52.2699C40.3782 52.2699 43.36 49.3956 43.36 45.8499C43.36 42.3043 40.3782 39.4299 36.7 39.4299C33.0218 39.4299 30.04 42.3043 30.04 45.8499C30.04 49.3956 33.0218 52.2699 36.7 52.2699Z" stroke="#010202" stroke-width="1.4575" stroke-miterlimit="10" stroke-linecap="round" stroke-dasharray="3.65 3.65"/>
<path d="M29.78 20.4901C29.78 20.4901 30.42 14.3201 35.95 14.3201C37.33 14.3201 38.38 14.6701 39.18 15.2001" stroke="#010202" stroke-width="0.6521" stroke-miterlimit="10" stroke-linecap="round" stroke-dasharray="1.66 1.66"/>
<path d="M35.74 13.3601C37.3858 13.3601 38.72 12.0752 38.72 10.4901C38.72 8.90506 37.3858 7.62012 35.74 7.62012C34.0942 7.62012 32.76 8.90506 32.76 10.4901C32.76 12.0752 34.0942 13.3601 35.74 13.3601Z" stroke="#010202" stroke-width="0.6521" stroke-miterlimit="10" stroke-linecap="round" stroke-dasharray="1.63 1.63"/>
<path d="M7 43.14C7.9 40.65 10 37.22 14.83 37.22C20.2 37.22 21.92 41.03 22.35 43.76" stroke="#010202" stroke-width="0.8005" stroke-miterlimit="10" stroke-linecap="round" stroke-dasharray="1.46 1.46"/>
<path d="M14.54 35.91C16.7933 35.91 18.62 34.146 18.62 31.97C18.62 29.794 16.7933 28.03 14.54 28.03C12.2867 28.03 10.46 29.794 10.46 31.97C10.46 34.146 12.2867 35.91 14.54 35.91Z" stroke="#010202" stroke-width="0.8005" stroke-miterlimit="10" stroke-linecap="round" stroke-dasharray="1.43 1.43"/>
<path d="M88.11 47.6199C89.01 45.1299 91.11 41.7 95.94 41.7C101.31 41.7 103.03 45.51 103.46 48.24" stroke="#010202" stroke-width="0.8005" stroke-miterlimit="10" stroke-linecap="round" stroke-dasharray="1.46 1.46"/>
<path d="M95.65 40.39C97.9033 40.39 99.73 38.626 99.73 36.45C99.73 34.274 97.9033 32.51 95.65 32.51C93.3967 32.51 91.57 34.274 91.57 36.45C91.57 38.626 93.3967 40.39 95.65 40.39Z" stroke="#010202" stroke-width="0.8005" stroke-miterlimit="10" stroke-linecap="round" stroke-dasharray="1.43 1.43"/>
<path d="M39.54 20.1099C40.44 17.6199 42.54 14.1899 47.37 14.1899C52.74 14.1899 54.46 17.9999 54.89 20.7299" stroke="#010202" stroke-width="0.8005" stroke-miterlimit="10" stroke-linecap="round" stroke-dasharray="1.46 1.46"/>
<path d="M47.08 12.88C49.3333 12.88 51.16 11.116 51.16 8.94C51.16 6.764 49.3333 5 47.08 5C44.8267 5 43 6.764 43 8.94C43 11.116 44.8267 12.88 47.08 12.88Z" stroke="#010202" stroke-width="0.8005" stroke-miterlimit="10" stroke-linecap="round" stroke-dasharray="1.43 1.43"/>
</svg>
