<svg width="111" height="103" viewBox="0 0 111 103" fill="none" xmlns="http://www.w3.org/2000/svg">
<path d="M61 102.261C88.6142 102.261 111 79.8752 111 52.261C111 24.6467 88.6142 2.26099 61 2.26099C33.3858 2.26099 11 24.6467 11 52.261C11 79.8752 33.3858 102.261 61 102.261Z" fill="#6EDFD1"/>
<path d="M68.82 93.1709C53.65 89.7909 35.52 82.3709 18.69 84.1409L23.2 40.5309C23.19 40.1109 69.42 47.4909 73.46 48.3609C73.85 48.4409 74.2 48.6509 74.23 49.0409C75.07 58.2609 68.82 93.1709 68.82 93.1709Z" fill="#E2E4E8"/>
<path d="M69.01 92.481C52.46 88.761 35.99 81.691 18.7 83.421C18.94 83.661 19.18 83.901 19.41 84.131C20.29 75.631 21.17 67.131 22.05 58.621C22.56 53.661 23.08 48.701 23.59 43.751C23.66 43.041 23.74 42.331 23.81 41.621C23.82 41.481 24.01 40.721 23.91 40.611C23.74 40.411 23.42 41.451 23.27 41.221C23.28 41.241 23.55 41.231 23.59 41.231C24.09 41.291 24.58 41.331 25.08 41.401C35.77 42.761 46.41 44.591 57.04 46.301C61.74 47.061 66.45 47.811 71.14 48.641C71.7 48.741 72.27 48.821 72.83 48.951C73.01 48.991 73.42 49.011 73.54 49.161C73.72 49.391 73.6 50.291 73.6 50.571C73.64 53.131 73.43 55.691 73.19 58.231C72.13 69.631 70.25 80.981 68.26 92.261C68.22 92.501 68.18 92.731 68.13 92.971C67.97 93.871 69.34 94.251 69.51 93.351C71.36 83.041 73.01 72.661 74.19 62.251C74.53 59.251 74.84 56.251 74.97 53.241C75.02 52.121 75.05 50.991 75 49.871C74.95 48.691 74.71 47.931 73.45 47.631C69.71 46.721 65.78 46.301 61.98 45.681C50.43 43.791 38.87 41.901 27.28 40.281C26.05 40.111 24.74 39.801 23.49 39.811C22.6 39.811 22.5 40.411 22.43 41.151C22.01 45.161 21.6 49.171 21.18 53.191C20.13 63.301 19.09 73.401 18.04 83.511C18.02 83.731 18 83.941 17.97 84.161C17.93 84.521 18.33 84.911 18.68 84.871C35.85 83.141 52.18 90.181 68.62 93.881C69.53 94.061 69.91 92.681 69.01 92.481Z" fill="#1A213C"/>
<path d="M23.16 45.3211C39.8 47.8511 56.3901 50.6311 73.0501 52.9911C73.9501 53.1211 74.34 51.7411 73.43 51.6111C56.7701 49.2511 40.17 46.4611 23.5401 43.9411C22.6401 43.8111 22.25 45.1811 23.16 45.3211Z" fill="#1A213C"/>
<path d="M31.71 52.1211C28.6 60.8711 24.69 69.3311 20.06 77.3811C33.11 86.5011 66.69 85.2911 67 84.8911C67.28 84.5211 69.98 63.5911 71.76 55.8111C65.31 57.0911 56.97 60.8011 31.71 52.1211Z" fill="#B7BBC5"/>
<path d="M31.02 51.9311C27.91 60.6211 24.03 69.0111 19.44 77.0111C19.24 77.3611 19.38 77.7711 19.7 77.9911C24.65 81.4111 30.85 82.9211 36.69 83.9711C42.99 85.1011 49.41 85.6311 55.81 85.8211C58.17 85.8911 60.53 85.9111 62.89 85.8611C64.16 85.8311 65.48 85.8711 66.74 85.6611C67.8 85.4911 67.8 84.7011 67.95 83.7711C68.33 81.4311 68.66 79.0711 69.01 76.7311C70.03 69.8111 70.91 62.8211 72.45 56.0011C72.58 55.4511 72.11 55.0111 71.57 55.1211C68.52 55.7311 65.54 56.5511 62.42 56.8211C56.96 57.3111 51.47 56.6211 46.13 55.4811C41.3 54.4411 36.57 53.0211 31.9 51.4211C31.03 51.1211 30.65 52.5011 31.52 52.8011C42.85 56.6811 55.17 59.9811 67.17 57.5511C68.77 57.2311 70.35 56.8111 71.95 56.4911C71.66 56.2011 71.36 55.9011 71.07 55.6111C69.77 61.3611 68.98 67.2411 68.11 73.0711C67.7 75.8211 67.3 78.5711 66.89 81.3311C66.77 82.1611 66.64 82.9811 66.5 83.8111C66.47 83.9911 66.36 84.2611 66.38 84.4511C66.43 84.9611 66.65 84.1011 66.72 84.2311C66.72 84.2311 66.09 84.3011 65.81 84.3211C65.13 84.3711 64.46 84.3911 63.78 84.4111C61.65 84.4711 59.52 84.4711 57.4 84.4311C51.35 84.3111 45.28 83.8911 39.3 82.9611C32.85 81.9611 25.88 80.5211 20.42 76.7511C20.51 77.0811 20.59 77.4011 20.68 77.7311C25.34 69.6211 29.26 61.1111 32.41 52.3011C32.71 51.4411 31.33 51.0711 31.02 51.9311Z" fill="#B7BBC5"/>
<path d="M32.58 38.251C28.96 46.801 24.57 55.021 19.47 62.781C31.97 72.661 65.56 73.411 65.9 73.021C66.2 72.671 70.11 51.931 72.34 44.271C65.83 45.171 57.29 48.391 32.58 38.251Z" fill="#FAB738"/>
<path d="M31.96 37.891C28.33 46.441 23.94 54.651 18.85 62.421C18.7 62.661 18.72 63.101 18.96 63.281C23.68 66.961 29.65 68.861 35.39 70.261C41.62 71.781 48 72.691 54.38 73.261C58.02 73.591 61.88 74.071 65.55 73.781C66.61 73.701 66.68 72.951 66.88 72.051C67.4 69.741 67.86 67.411 68.35 65.091C69.78 58.201 71.07 51.221 73.03 44.461C73.2 43.881 72.66 43.511 72.15 43.581C69.07 44.011 66.04 44.641 62.92 44.741C57.44 44.911 52 43.901 46.74 42.441C41.98 41.121 37.34 39.421 32.77 37.561C31.92 37.211 31.55 38.591 32.39 38.941C43.49 43.481 55.57 47.471 67.71 45.741C69.32 45.511 70.92 45.191 72.54 44.961C72.25 44.671 71.95 44.371 71.66 44.081C70 49.801 68.86 55.671 67.65 61.491C67.09 64.161 66.54 66.841 65.98 69.511C65.8 70.351 65.63 71.181 65.44 72.011C65.4 72.171 65.27 72.451 65.29 72.611C65.35 73.011 65.53 72.131 65.76 72.331C65.64 72.231 64.84 72.371 64.68 72.371C64 72.381 63.33 72.361 62.65 72.341C60.54 72.281 58.44 72.151 56.34 71.991C50.32 71.521 44.31 70.741 38.4 69.481C32.08 68.121 25.17 66.311 19.98 62.261C20.02 62.551 20.05 62.841 20.09 63.121C25.18 55.351 29.56 47.141 33.2 38.591C33.55 37.771 32.32 37.041 31.96 37.891Z" fill="#1A213C"/>
<path d="M15.13 84.0511C14.79 83.6211 1.31004 53.2811 1.72004 53.3211C18.69 55.0911 35.26 56.5511 53.7 59.4711C53.92 59.5011 68.35 92.4911 68.82 93.1711L15.13 84.0511Z" fill="white"/>
<path d="M15.75 83.6911C15.44 83.2511 15.26 82.6711 15.03 82.1911C14.47 80.9711 13.92 79.7511 13.37 78.5211C11.77 74.9511 10.18 71.3811 8.61003 67.8011C7.07003 64.2911 5.53003 60.7911 4.03003 57.2611C3.58003 56.1911 3.12003 55.1311 2.71003 54.0511C2.65003 53.8911 2.56003 53.3911 2.43003 53.2811C2.42003 53.2711 2.42003 53.1911 2.41003 53.1911C2.36003 53.1811 2.47003 53.3211 2.43003 53.3311C2.39003 53.4511 2.35003 53.5811 2.30003 53.7011C2.06003 54.0111 2.09003 54.1411 2.40003 54.0911C2.72003 54.3111 3.59003 54.2111 3.98003 54.2511C4.50003 54.3011 5.03003 54.3611 5.55003 54.4111C13.14 55.1911 20.73 55.9411 28.31 56.7911C32.24 57.2311 36.16 57.7011 40.08 58.2111C42.23 58.4911 44.37 58.7811 46.51 59.0911C48.48 59.3711 50.56 59.9211 52.54 59.9911C52.59 59.9911 53.33 59.9611 53.12 59.8511C53.14 59.8611 53.14 59.9111 53.16 59.9211C53.22 59.9711 53.25 60.1211 53.29 60.1911C53.48 60.4911 53.61 60.8611 53.76 61.1811C54.29 62.3211 54.8 63.4711 55.31 64.6111C56.86 68.0811 58.4 71.5611 59.94 75.0311C61.6 78.7711 63.25 82.5111 64.91 86.2411C65.55 87.6711 66.18 89.1011 66.82 90.5211C67.19 91.3511 67.51 92.2911 67.98 93.0711C68.06 93.2111 68.11 93.3611 68.19 93.5011C68.46 93.1511 68.73 92.8011 69 92.4511C62.96 91.4211 56.92 90.4011 50.88 89.3711C41.25 87.7311 31.61 86.1011 21.98 84.4611C19.76 84.0811 17.54 83.7111 15.32 83.3311C14.42 83.1811 14.04 84.5511 14.94 84.7111C20.98 85.7411 27.02 86.7611 33.06 87.7911C42.69 89.4311 52.33 91.0611 61.96 92.7011C64.18 93.0811 66.4 93.4511 68.62 93.8311C69.19 93.9311 69.79 93.3511 69.43 92.7811C68.4 91.1911 67.77 89.1811 67 87.4511C65.34 83.7211 63.69 79.9911 62.04 76.2611C60.38 72.5111 58.72 68.7611 57.04 65.0111C56.45 63.6811 55.85 62.3511 55.25 61.0311C54.98 60.4311 54.75 59.6711 54.36 59.1411C53.79 58.3711 52.31 58.5011 51.45 58.3711C49.37 58.0511 47.29 57.7511 45.21 57.4611C41.18 56.9011 37.15 56.3811 33.11 55.9011C25.13 54.9911 17.14 54.1911 9.14003 53.3711C7.19003 53.1711 5.25003 52.9711 3.30003 52.7711C2.60003 52.7011 1.06003 52.2111 1.00003 53.3511C0.970028 53.9411 1.44003 54.7011 1.65003 55.2211C2.92003 58.3611 4.29003 61.4611 5.65003 64.5711C8.48003 71.0411 11.19 77.6111 14.29 83.9611C14.36 84.1111 14.42 84.2711 14.52 84.4111C15.04 85.1611 16.28 84.4511 15.75 83.6911Z" fill="#1A213C"/>
<path d="M100.96 12.251C96.3501 11.741 91.6601 11.671 87.0201 11.681C86.6901 11.681 86.4101 12.021 86.5101 12.341C86.9801 13.831 88.2301 14.821 88.6901 16.301C88.7701 16.571 89.0501 16.751 89.3401 16.671C92.7601 15.691 96.1801 14.701 99.6001 13.721C100.1 13.581 100.6 13.431 101.1 13.291C101.75 13.101 101.47 12.091 100.82 12.281C97.4001 13.261 93.9801 14.251 90.5601 15.231C90.0601 15.371 89.5601 15.521 89.0601 15.661C89.2801 15.781 89.4901 15.901 89.7101 16.031C89.2401 14.541 87.9901 13.551 87.5301 12.071C87.3601 12.291 87.1901 12.511 87.0201 12.731C91.6601 12.721 96.3501 12.791 100.96 13.301C101.63 13.381 101.63 12.321 100.96 12.251Z" fill="#1B1D2E"/>
<path d="M89.3201 16.7211C92.8001 15.6611 96.2901 14.6411 99.7701 13.6111C100.18 13.4911 100.6 13.3611 101.01 13.2411C100.81 12.9811 100.61 12.7311 100.42 12.4711C99.2701 14.9411 96.8601 16.8411 94.7401 18.4511C93.3801 19.4911 91.9601 20.4711 90.5001 21.3611C90.7601 21.5111 91.0301 21.6611 91.2901 21.8111C91.0901 19.8111 90.5801 17.7511 89.6301 15.9511C89.3201 15.3511 88.4101 15.8811 88.7201 16.4811C89.5701 18.1011 90.0501 20.0011 90.2301 21.8111C90.2701 22.1911 90.6501 22.4911 91.0201 22.2611C92.5701 21.3311 94.0501 20.2811 95.4801 19.1811C97.6601 17.5111 100.12 15.5511 101.31 13.0011C101.49 12.6111 101.19 12.0911 100.72 12.2311C97.5701 13.1611 94.4301 14.1011 91.2801 15.0411C90.5301 15.2611 89.7801 15.4911 89.0301 15.7211C88.4001 15.9011 88.6701 16.9211 89.3201 16.7211Z" fill="#1B1D2E"/>
<path d="M88.17 19.4111C88.82 19.6011 89.47 19.7911 90.12 19.9711L88.17 19.4111Z" fill="#8ACCC9"/>
<path d="M88.0301 19.9112C88.6801 20.1012 89.3301 20.2912 89.9801 20.4712C90.2401 20.5512 90.5601 20.3812 90.6301 20.1012C90.6901 19.8212 90.5501 19.5412 90.2601 19.4512C89.6101 19.2612 88.9601 19.0712 88.3101 18.8912C88.0501 18.8112 87.7301 18.9812 87.6601 19.2612C87.6001 19.5512 87.7501 19.8312 88.0301 19.9112Z" fill="#1B1D2E"/>
<path d="M89.2801 16.1611C88.8501 17.2611 88.5401 18.4111 88.3701 19.5811L89.2801 16.1611Z" fill="#8ACCC9"/>
<path d="M88.7801 16.0212C88.3501 17.1212 88.0501 18.2712 87.8701 19.4412C87.8301 19.7112 87.9401 20.0212 88.2401 20.0912C88.4901 20.1512 88.8401 20.0112 88.8901 19.7212C89.0601 18.5512 89.3701 17.4112 89.8001 16.3012C89.9001 16.0412 89.6901 15.7112 89.4301 15.6512C89.1201 15.5812 88.8801 15.7412 88.7801 16.0212Z" fill="#1B1D2E"/>
<path d="M95.94 26.651C87.78 29.091 89.82 40.111 83.83 44.631C82.38 45.721 79.21 46.901 77.92 44.921C77.37 44.071 77.64 42.871 78.28 42.141C79.07 41.231 80.37 41.181 81.41 41.631C83.74 42.631 84.12 45.461 83.39 47.641C82.68 49.731 81.12 51.461 79.6 53.011C76.29 56.411 72.29 59.081 67.91 60.891C67.35 61.121 67.6 62.041 68.16 61.811C72.95 59.831 77.3 56.891 80.84 53.091C83.51 50.221 86.98 44.651 82.84 41.381C81.47 40.301 79.36 39.961 77.94 41.161C76.68 42.221 76.19 44.291 77.28 45.651C78.48 47.141 80.73 47.121 82.38 46.521C84.34 45.811 85.89 44.261 86.98 42.531C89.99 37.781 89.81 29.481 96.19 27.571C96.77 27.401 96.53 26.481 95.94 26.651Z" fill="#1B1D2E"/>
<path d="M83.37 0.541016C72.01 3.02102 48.46 9.80102 48.46 9.80102C50.65 14.221 52.62 15.631 54.8 20.051L83.37 0.541016Z" fill="#8ACCC9"/>
<path d="M83.23 0.0409262C72.53 2.38093 61.97 5.42093 51.44 8.41093C50.4 8.70093 49.36 9.00093 48.32 9.30093C47.98 9.40093 47.85 9.77093 48.01 10.0709C49.83 13.6809 52.53 16.7109 54.35 20.3209C54.47 20.5609 54.84 20.6609 55.07 20.5109C63.4 14.8209 71.73 9.13093 80.06 3.44093C81.25 2.63093 82.44 1.81093 83.63 1.00093C84.18 0.620926 83.66 -0.289074 83.1 0.0909262C74.77 5.78093 66.44 11.4709 58.11 17.1609C56.92 17.9709 55.73 18.7909 54.54 19.6009C54.78 19.6609 55.02 19.7309 55.26 19.7909C53.44 16.1809 50.74 13.1509 48.92 9.54093C48.82 9.80093 48.71 10.0509 48.61 10.3109C57.21 7.84093 65.83 5.45093 74.5 3.23093C77.5 2.46093 80.5 1.72093 83.52 1.05093C84.17 0.900926 83.89 -0.109074 83.23 0.0409262Z" fill="#1B1D2E"/>
<path d="M58.68 23.6808C63.2 21.3808 66.84 17.7108 70.4 14.1008C74.13 10.3208 83.26 0.60083 83.26 0.60083C80.47 11.4708 70.8 35.0508 70.8 35.0508C65.8 31.4008 58.68 23.6808 58.68 23.6808Z" fill="#8ACCC9"/>
<path d="M54.38 20.2009C54.28 22.9209 53.85 25.6309 53.11 28.2509L54.38 20.2009Z" fill="#8ACCC9"/>
<path d="M53.86 20.201C53.75 22.881 53.33 25.531 52.61 28.111C52.43 28.761 53.44 29.041 53.62 28.391C54.37 25.721 54.8 22.971 54.91 20.211C54.94 19.521 53.89 19.531 53.86 20.201Z" fill="#1B1D2E"/>
<path d="M53.32 28.3409C55.06 26.5009 57.01 24.8609 59.12 23.4609L53.32 28.3409Z" fill="#8ACCC9"/>
<path d="M53.69 28.7209C55.4 26.9109 57.31 25.3009 59.38 23.9209C59.94 23.5509 59.41 22.6409 58.85 23.0109C56.7 24.4409 54.72 26.1009 52.95 27.9709C52.48 28.4609 53.22 29.2109 53.69 28.7209Z" fill="#1B1D2E"/>
<path d="M53.83 28.7411C56.89 28.2411 60.01 28.1311 63.1 28.4211L53.83 28.7411Z" fill="#8ACCC9"/>
<path d="M53.97 29.241C56.99 28.751 60.06 28.661 63.1 28.931C63.77 28.991 63.77 27.941 63.1 27.881C59.96 27.601 56.8 27.721 53.69 28.221C53.03 28.341 53.31 29.351 53.97 29.241Z" fill="#1B1D2E"/>
<path d="M60.42 24.8809C63.58 25.7809 67.21 24.1409 69.45 21.7309C70.28 20.8409 70.93 19.7809 71.88 19.0309C72.72 18.3709 73.74 17.9809 74.66 17.4309C77.86 15.5209 79.48 11.8609 80.91 8.4209L70.67 34.9609L60.42 24.8809Z" fill="#E1EFEF"/>
<path d="M58.95 24.1409C65.19 20.9009 69.97 15.3609 74.77 10.3409C77.74 7.23094 80.69 4.11094 83.63 0.980942C83.34 0.810942 83.05 0.640942 82.75 0.470942C81.32 6.01094 79.33 11.4209 77.35 16.7809C75.49 21.8209 73.54 26.8309 71.54 31.8209C71.13 32.8509 70.71 33.8909 70.29 34.9109C70.55 34.8109 70.8 34.7009 71.06 34.6009C66.66 31.3609 62.75 27.3309 59.05 23.3209C58.59 22.8209 57.85 23.5709 58.31 24.0609C62.08 28.1409 66.06 32.2109 70.54 35.5009C70.84 35.7209 71.2 35.4609 71.31 35.1909C74.79 26.7109 78.11 18.1509 81.07 9.48094C82.05 6.59094 83 3.69094 83.77 0.750942C83.9 0.260942 83.26 -0.149058 82.89 0.240942C80.02 3.30094 77.14 6.34094 74.24 9.38094C69.44 14.4109 64.67 20.0009 58.42 23.2409C57.82 23.5409 58.35 24.4509 58.95 24.1409Z" fill="#1B1D2E"/>
<path d="M55.56 33.531C52.44 34.791 49.77 36.951 47.91 39.751C47.57 40.261 48.39 40.741 48.73 40.231C50.44 37.651 52.94 35.611 55.81 34.451C56.38 34.221 56.13 33.301 55.56 33.531Z" fill="#1B1D2E"/>
<path d="M101.02 21.5409C102.52 21.2609 104.02 20.9709 105.53 20.6909C105.78 20.6409 105.93 20.3409 105.86 20.1009C105.79 19.8409 105.53 19.7209 105.27 19.7709C103.77 20.0509 102.27 20.3409 100.76 20.6209C100.51 20.6709 100.36 20.9709 100.43 21.2109C100.5 21.4809 100.76 21.5909 101.02 21.5409Z" fill="#1B1D2E"/>
<path d="M100.23 31.4409C101.65 31.2409 103.1 31.3309 104.49 31.6609C105.09 31.8009 105.34 30.8909 104.74 30.7409C103.17 30.3609 101.57 30.3009 99.97 30.5209C99.72 30.5609 99.58 30.8809 99.64 31.1109C99.72 31.3809 99.97 31.4709 100.23 31.4409Z" fill="#1B1D2E"/>
<path d="M83.4401 20.1909C81.4601 20.7909 79.7501 22.0409 78.5401 23.7209C78.3901 23.9309 78.5001 24.2509 78.7101 24.3709C78.9501 24.5109 79.2101 24.4109 79.3601 24.2009C80.4101 22.7309 81.9601 21.6309 83.6901 21.1009C84.2701 20.9209 84.0301 20.0109 83.4401 20.1909Z" fill="#1B1D2E"/>
<path d="M49.41 29.7709C48.18 30.6009 47.27 31.8209 46.82 33.2309C46.75 33.4709 46.91 33.7609 47.15 33.8209C47.41 33.8809 47.66 33.7409 47.74 33.4909C47.85 33.1609 47.93 32.9509 48.08 32.6609C48.23 32.3709 48.4 32.1009 48.59 31.8409C48.66 31.7509 48.74 31.6509 48.84 31.5309C48.94 31.4109 49.05 31.3009 49.17 31.1909C49.43 30.9409 49.62 30.7909 49.89 30.6109C50.1 30.4709 50.2 30.1909 50.06 29.9609C49.94 29.7309 49.63 29.6209 49.41 29.7709Z" fill="#1B1D2E"/>
</svg>
