<svg width="104" height="100" viewBox="0 0 104 100" fill="none" xmlns="http://www.w3.org/2000/svg">
<path d="M54 100C81.6142 100 104 77.6142 104 50C104 22.3858 81.6142 0 54 0C26.3858 0 4 22.3858 4 50C4 77.6142 26.3858 100 54 100Z" fill="#17B9F1"/>
<path d="M58.9932 80.39C63.8432 80.49 68.7032 80.62 73.5432 80.91C73.8732 80.93 74.1232 80.62 74.1432 80.31C74.6332 70.41 75.0232 60.51 74.9332 50.6C74.8732 43.24 74.5832 35.89 74.4932 28.54C74.4132 22.12 74.4332 15.7 74.5132 9.28996C74.5132 8.96996 74.2332 8.68996 73.9132 8.68996C57.5432 8.70996 41.2032 7.40996 24.8332 7.43996C24.5132 7.43996 24.2332 7.70996 24.2332 8.03996C24.4632 19.44 24.5532 30.84 24.5132 42.23C24.5132 43 25.7032 43 25.7032 42.23C25.7332 30.83 25.6532 19.43 25.4232 8.03996C25.2232 8.23996 25.0232 8.43997 24.8232 8.63997C41.1932 8.61997 57.5332 9.91997 73.9032 9.88997C73.7032 9.68997 73.5032 9.48996 73.3032 9.28996C73.1832 19.21 73.2432 29.12 73.4932 39.03C73.6732 46.38 73.8132 53.73 73.6532 61.09C73.5232 67.51 73.2432 73.92 72.9332 80.33C73.1332 80.13 73.3332 79.93 73.5332 79.73C68.6932 79.44 63.8332 79.31 58.9832 79.21C58.2232 79.19 58.2232 80.38 58.9932 80.39Z" fill="#1B1D2E"/>
<path d="M71.1532 42.08C70.9032 32.35 70.8532 22.62 70.9732 12.89C70.9732 12.57 70.6932 12.29 70.3732 12.29C56.2132 12.33 42.0932 11.17 27.9332 11.21C27.6132 11.21 27.3332 11.48 27.3332 11.81C27.5232 21.4 27.6032 31 27.5932 40.59C27.5932 41.36 28.7832 41.36 28.7832 40.59C28.7932 31 28.7132 21.4 28.5332 11.81C28.3332 12.01 28.1332 12.21 27.9332 12.41C42.0932 12.37 56.2132 13.53 70.3732 13.49C70.1732 13.29 69.9732 13.09 69.7732 12.89C69.6532 22.62 69.7032 32.35 69.9532 42.08C69.9832 42.85 71.1732 42.85 71.1532 42.08Z" fill="#1B1D2E"/>
<path d="M74.0232 80.8601C75.4332 79.3401 77.2632 78.1701 78.9032 76.9201C79.6332 76.3601 80.3532 75.8101 81.0632 75.2301C81.5432 74.8301 82.3032 74.3501 82.4432 73.7101C82.5932 73.0301 82.4332 72.1301 82.4332 71.4301C82.4032 66.5001 82.3732 61.5801 82.3432 56.6501C82.2532 42.8501 82.1632 29.0501 82.0732 15.2401C82.0532 11.8501 82.0332 8.46013 82.0032 5.07013C82.0032 4.66013 81.4832 4.28013 81.1032 4.56013C78.7532 6.29013 75.7332 6.98013 73.3832 8.70013C72.7732 9.15013 73.3632 10.1801 73.9832 9.73013C76.3332 8.00013 79.3532 7.31013 81.7032 5.59013C81.4032 5.42013 81.1032 5.25013 80.8032 5.08013C80.8632 14.1201 80.9232 23.1601 80.9732 32.2001C81.0532 44.7601 81.1332 57.3301 81.2132 69.8901C81.2232 71.1101 81.3332 72.3801 81.2332 73.5901C81.2332 73.6201 81.2432 73.6601 81.2332 73.6901C81.3132 73.1801 81.2432 73.5301 80.9732 73.7201C80.0432 74.3901 79.1932 75.2001 78.2832 75.9001C76.5632 77.2101 74.6432 78.4401 73.1632 80.0301C72.6632 80.5801 73.5032 81.4301 74.0232 80.8601Z" fill="#1B1D2E"/>
<path d="M81.4632 4.35007C72.2132 3.89007 62.9532 3.58007 53.6932 3.27007C49.8032 3.14007 45.9132 3.01007 42.0332 2.89007C40.5232 2.84007 38.6332 2.47007 37.1432 2.82007C35.0532 3.32007 32.9532 4.36007 30.9432 5.12007C28.8332 5.91007 26.7232 6.72007 24.5932 7.47007C23.9732 7.69007 24.0532 8.62007 24.7532 8.64007C32.0332 8.82007 39.3132 9.01007 46.5932 9.19007C55.4432 9.41007 64.2832 9.64007 73.1332 9.86007C74.1332 9.89007 74.6032 9.57007 75.5132 9.05007C77.5932 7.85007 79.6732 6.66007 81.7632 5.46007C82.4232 5.08007 81.8332 4.05007 81.1632 4.43007C79.3832 5.45007 77.6032 6.47007 75.8332 7.50007C75.1132 7.91007 74.4032 8.40007 73.6532 8.75007C74.0032 8.58007 73.8732 8.70007 73.5032 8.68007C70.4432 8.47007 67.3532 8.52007 64.2932 8.45007C53.8332 8.19007 43.3732 7.92007 32.9232 7.66007C30.2032 7.59007 27.4832 7.52007 24.7732 7.45007C24.8232 7.84007 24.8832 8.23007 24.9332 8.62007C28.8032 7.26007 32.6132 5.75007 36.4732 4.34007C37.2232 4.06007 37.4932 3.94007 38.2532 3.97007C39.2632 4.00007 40.2832 4.03007 41.2932 4.06007C49.7232 4.32007 58.1632 4.60007 66.5932 4.92007C71.5632 5.11007 76.5232 5.30007 81.4832 5.55007C82.2232 5.58007 82.2232 4.39007 81.4632 4.35007Z" fill="#1B1D2E"/>
<path d="M28.1932 41.4701C42.1432 41.7001 56.0832 42.2801 70.0332 42.3101C70.8032 42.3101 70.8032 41.1201 70.0332 41.1201C56.0832 41.0901 42.1432 40.5001 28.1932 40.2801C27.4332 40.2701 27.4332 41.4601 28.1932 41.4701Z" fill="#1B1D2E"/>
<path d="M43.2432 19.9301C43.2432 21.9601 43.2432 23.9901 43.2432 26.0101C46.7932 25.9101 49.9132 26.0401 53.4332 26.4201C53.1332 24.0001 53.6132 22.2501 53.4032 19.9201C49.8432 19.7701 43.2432 19.9301 43.2432 19.9301Z" fill="#FAB738"/>
<path d="M42.5932 19.93C42.5932 21.96 42.5932 23.99 42.5932 26.01C42.5932 26.35 42.8932 26.67 43.2432 26.66C46.6532 26.57 50.0432 26.71 53.4332 27.07C53.7532 27.1 54.1232 26.74 54.0832 26.42C53.8332 24.25 54.2332 22.09 54.0532 19.92C54.0232 19.56 53.7832 19.29 53.4032 19.27C50.0232 19.12 46.6232 19.19 43.2432 19.27C42.4132 19.29 42.4032 20.59 43.2432 20.57C46.6232 20.49 50.0232 20.42 53.4032 20.57C53.1832 20.35 52.9732 20.14 52.7532 19.92C52.9332 22.09 52.5332 24.25 52.7832 26.42C53.0032 26.2 53.2132 25.99 53.4332 25.77C50.0432 25.41 46.6432 25.27 43.2432 25.36C43.4632 25.58 43.6732 25.79 43.8932 26.01C43.8932 23.98 43.8932 21.95 43.8932 19.93C43.8932 19.1 42.5932 19.1 42.5932 19.93Z" fill="#1A213C"/>
<path d="M38.5632 32.2101C45.4232 32.1301 52.2832 32.3901 59.1232 33.0101C59.8832 33.0801 59.8832 31.8901 59.1232 31.8201C52.2932 31.2001 45.4332 30.9301 38.5632 31.0201C37.8032 31.0301 37.8032 32.2201 38.5632 32.2101Z" fill="#1B1D2E"/>
<path d="M2.07324 50.16C11.5932 48.49 20.6832 45.19 29.5532 41.42C30.2532 41.12 29.6532 40.1 28.9532 40.39C20.1732 44.12 11.1732 47.35 1.75324 49.01C1.00324 49.14 1.32324 50.29 2.07324 50.16Z" fill="#1B1D2E"/>
<path d="M28.6432 40.7901C28.3332 43.9101 28.5332 47.0401 28.3932 50.1701C28.3532 50.9401 29.5432 50.9301 29.5832 50.1701C29.7332 47.0401 29.5232 43.9101 29.8332 40.7901C29.9132 40.0201 28.7232 40.0301 28.6432 40.7901Z" fill="#1B1D2E"/>
<path d="M29.6832 42.2801C28.4832 40.3301 26.6532 38.8401 24.5232 38.0801C23.1932 37.6001 21.7532 37.4101 20.3532 37.3601C18.3032 37.2801 16.1532 37.4901 14.2732 38.3801C13.7632 38.6201 13.2732 38.9301 12.8232 39.2801C9.23323 42.1901 7.56323 48.2701 10.1532 52.3701C11.2932 54.1701 13.1532 55.3901 15.0832 56.1701C17.1132 56.9901 19.3432 57.4001 21.5332 57.3601C23.7632 57.3201 25.9832 56.7901 27.8032 55.4201C28.7432 54.7101 29.5332 53.7801 30.0932 52.7401C30.7032 51.6001 31.0032 50.4101 31.1432 49.1201C31.3832 46.7401 30.9332 44.3201 29.6832 42.2801Z" fill="white"/>
<path d="M26.3332 46.6602C26.2432 46.6102 26.1432 46.5602 26.0532 46.5202C26.4032 46.2802 26.6532 45.9102 26.7432 45.4902C26.8732 44.8502 26.6232 44.1702 26.1032 43.7902C25.7332 43.5202 25.2432 43.4002 24.7232 43.4502C24.4632 43.4802 24.2432 43.5402 24.0432 43.6402C23.3532 43.9902 23.0032 44.9002 23.2632 45.6502C23.3632 45.9302 23.5432 46.1702 23.7632 46.3702C23.5232 46.4402 23.2832 46.5402 23.0732 46.6802C22.6232 46.9602 22.2332 47.3702 21.9632 47.8602C21.9432 47.9002 21.9332 47.9402 21.9232 47.9802C21.7132 47.8202 21.4832 47.6702 21.2432 47.5602C21.6132 47.3802 21.9332 47.1002 22.1432 46.7402C22.6232 45.9002 22.4032 44.7402 21.6632 44.1602C21.4532 44.0002 21.1932 43.8702 20.8932 43.7802C20.2732 43.5902 19.6532 43.6302 19.1532 43.8702C18.4532 44.2102 17.9932 44.9702 18.0132 45.7602C18.0332 46.3402 18.3032 46.8902 18.7332 47.2602C18.5732 47.2902 18.4032 47.3402 18.2532 47.4002C18.2632 47.3502 18.2632 47.2902 18.2432 47.2402C18.0632 46.7102 17.7632 46.2402 17.3632 45.8802C17.1732 45.7102 16.9632 45.5702 16.7332 45.4502C16.9832 45.3002 17.2032 45.1002 17.3532 44.8402C17.7532 44.1502 17.5732 43.1902 16.9532 42.7202C16.7832 42.5902 16.5632 42.4802 16.3232 42.4102C15.8132 42.2602 15.3132 42.2902 14.9032 42.4802C14.3232 42.7602 13.9532 43.3802 13.9632 44.0302C13.9732 44.4602 14.1632 44.8702 14.4632 45.1702C14.3632 45.2002 14.2632 45.2202 14.1632 45.2602C13.1332 45.6402 12.2032 46.8802 12.0432 48.0802C12.0132 48.2602 12.1432 48.4302 12.3232 48.4602H12.3332C12.5032 48.4802 12.6632 48.3502 12.6832 48.1702C12.8132 47.2102 13.5732 46.1802 14.3832 45.8802C15.2332 45.5602 16.2532 45.7602 16.9232 46.3802C17.2332 46.6602 17.4732 47.0402 17.6132 47.4602C17.6432 47.5402 17.6932 47.5902 17.7532 47.6302C16.6632 48.2602 15.7432 49.6102 15.5632 50.9302C15.5332 51.1102 15.6632 51.2802 15.8432 51.3102H15.8532C16.0232 51.3302 16.1832 51.2002 16.2032 51.0202C16.3732 49.7702 17.3632 48.4302 18.4132 48.0402C19.5232 47.6302 20.8532 47.8902 21.7232 48.6902C22.6032 49.4902 23.0032 50.8102 22.7232 51.9702C22.6832 52.1502 22.7832 52.3302 22.9632 52.3702C22.9832 52.3702 22.9932 52.3802 23.0132 52.3802C23.1732 52.4002 23.3232 52.2902 23.3632 52.1302C23.6832 50.8102 23.2732 49.3302 22.3432 48.3602C22.4232 48.3402 22.4932 48.2802 22.5332 48.2102C22.7532 47.8202 23.0532 47.5002 23.4132 47.2802C24.1832 46.8102 25.2232 46.8002 25.9932 47.2702C26.7332 47.7202 27.2932 48.8702 27.2432 49.8402C27.2332 50.0202 27.3632 50.1702 27.5432 50.1902C27.5532 50.1902 27.5532 50.1902 27.5632 50.1902C27.7432 50.2002 27.8932 50.0602 27.9032 49.8702C27.9632 48.6302 27.2732 47.2302 26.3332 46.6602ZM15.1832 43.0402C15.3632 42.9502 15.5832 42.9202 15.8132 42.9402C15.9132 42.9502 16.0232 42.9702 16.1332 43.0002C16.3032 43.0502 16.4432 43.1202 16.5532 43.2002C16.9132 43.4802 17.0132 44.0502 16.7832 44.4602C16.5532 44.8602 16.0132 45.0702 15.5632 44.9302C15.4832 44.9102 15.4132 44.9102 15.3432 44.9402C15.3132 44.9102 15.2732 44.8802 15.2332 44.8602C14.8832 44.7102 14.6332 44.3502 14.6232 43.9602C14.6132 43.5902 14.8432 43.2102 15.1832 43.0402ZM18.6632 45.7202C18.6532 45.2002 18.9632 44.6802 19.4232 44.4602C19.6732 44.3402 19.9632 44.3002 20.2732 44.3302C20.4132 44.3402 20.5532 44.3702 20.7032 44.4102C20.9332 44.4802 21.1232 44.5702 21.2632 44.6802C21.7532 45.0602 21.8932 45.8402 21.5732 46.3902C21.2632 46.9402 20.5332 47.2202 19.9232 47.0302C19.8232 47.0002 19.7232 47.0202 19.6432 47.0702C19.6032 47.0102 19.5532 46.9602 19.4932 46.9402C19.0232 46.7402 18.6832 46.2402 18.6632 45.7202ZM24.3432 44.2402C24.4632 44.1802 24.6132 44.1402 24.7932 44.1202C25.1632 44.0802 25.4932 44.1602 25.7232 44.3402C26.0232 44.5702 26.1832 44.9802 26.1032 45.3602C26.0232 45.7302 25.7132 46.0502 25.3432 46.1302C25.2932 46.1402 25.2532 46.1602 25.2132 46.1902C25.1732 46.1602 25.1132 46.1402 25.0632 46.1402C25.0432 46.1402 25.0232 46.1402 24.9932 46.1402C24.5232 46.1902 24.0332 45.8902 23.8832 45.4502C23.7332 44.9902 23.9432 44.4402 24.3432 44.2402Z" fill="#1C1D2D"/>
<path d="M29.6832 42.2801C28.4832 40.3301 26.6532 38.8401 24.5232 38.0801C23.1932 37.6001 21.7532 37.4101 20.3532 37.3601C18.3032 37.2801 16.1532 37.4901 14.2732 38.3801C13.7632 38.6201 13.2732 38.9301 12.8232 39.2801C9.23323 42.1901 7.56323 48.2701 10.1532 52.3701C11.2932 54.1701 13.1532 55.3901 15.0832 56.1701C17.1132 56.9901 19.3432 57.4001 21.5332 57.3601C23.7632 57.3201 25.9832 56.7901 27.8032 55.4201C28.7432 54.7101 29.5332 53.7801 30.0932 52.7401C30.7032 51.6001 31.0032 50.4101 31.1432 49.1201C31.3832 46.7401 30.9332 44.3201 29.6832 42.2801ZM28.3632 53.5201C26.9832 55.1701 24.9332 56.0301 22.8532 56.2801C20.9332 56.5101 18.9332 56.3001 17.0632 55.7901C15.1932 55.2701 13.3032 54.4201 11.9132 53.0001C8.76323 49.8001 9.61323 44.3901 12.3032 41.1601C12.6432 40.7501 13.0332 40.3801 13.4432 40.0401C15.8832 38.1201 19.4132 38.1201 22.3432 38.5501C24.4132 38.8501 26.3732 39.8401 27.8032 41.4101C29.2332 42.9801 30.0532 45.0101 30.2032 47.1401C30.3632 49.4201 29.8332 51.7601 28.3632 53.5201Z" fill="#1C1D2D"/>
<path d="M61.9832 28.47C59.8232 24.96 56.5232 22.28 52.6932 20.91C50.3032 20.05 47.7132 19.71 45.1832 19.61C41.4932 19.47 37.6232 19.84 34.2432 21.44C33.3132 21.88 32.4332 22.43 31.6232 23.06C25.1632 28.31 22.1432 39.25 26.8032 46.63C28.8532 49.88 32.2132 52.08 35.6832 53.48C39.3432 54.96 43.3632 55.69 47.2932 55.63C51.3132 55.56 55.3132 54.61 58.5832 52.13C60.2732 50.85 61.6932 49.18 62.7132 47.3C63.8232 45.25 64.3532 43.1 64.6032 40.78C65.0532 36.5 64.2432 32.14 61.9832 28.47Z" fill="white"/>
<path d="M55.9632 36.3699C55.8032 36.2699 55.6332 36.1899 55.4532 36.1099C56.0732 35.6799 56.5432 35.0199 56.7032 34.2599C56.9432 33.1199 56.4832 31.8899 55.5532 31.1999C54.8932 30.7099 54.0132 30.4999 53.0632 30.5899C52.6032 30.6399 52.1932 30.7499 51.8432 30.9299C50.5932 31.5699 49.9632 33.1899 50.4432 34.5499C50.6232 35.0599 50.9432 35.4999 51.3432 35.8399C50.9032 35.9699 50.4832 36.1499 50.0932 36.3899C49.2732 36.8899 48.5832 37.6199 48.0932 38.5099C48.0532 38.5799 48.0332 38.6499 48.0232 38.7299C47.6332 38.4299 47.2332 38.1699 46.7932 37.9699C47.4632 37.6499 48.0432 37.1499 48.4132 36.4899C49.2832 34.9699 48.8932 32.8899 47.5432 31.8399C47.1632 31.5499 46.6932 31.3099 46.1432 31.1499C45.0232 30.8199 43.9132 30.8699 43.0032 31.3099C41.7432 31.9199 40.9132 33.2799 40.9532 34.7099C40.9832 35.7599 41.4732 36.7399 42.2432 37.4099C41.9432 37.4699 41.6532 37.5599 41.3732 37.6599C41.3932 37.5599 41.3932 37.4599 41.3632 37.3699C41.0432 36.4099 40.4932 35.5599 39.7832 34.9099C39.4432 34.5999 39.0632 34.3399 38.6532 34.1299C39.1132 33.8699 39.5032 33.4999 39.7732 33.0299C40.4832 31.7799 40.1632 30.0699 39.0532 29.1999C38.7432 28.9599 38.3632 28.7699 37.9132 28.6399C37.0032 28.3699 36.0932 28.4199 35.3532 28.7699C34.3132 29.2699 33.6332 30.3899 33.6632 31.5599C33.6832 32.3399 34.0232 33.0799 34.5532 33.6199C34.3732 33.6699 34.1832 33.7099 34.0132 33.7799C32.1632 34.4699 30.4932 36.6999 30.1932 38.8699C30.1432 39.1999 30.3732 39.4999 30.6932 39.5499C30.7032 39.5499 30.7132 39.5499 30.7232 39.5499C31.0332 39.5799 31.3232 39.3499 31.3632 39.0299C31.6032 37.2999 32.9732 35.4499 34.4232 34.9099C35.9432 34.3399 37.7832 34.6999 38.9932 35.7999C39.5532 36.3099 39.9832 36.9799 40.2432 37.7499C40.2932 37.8899 40.3832 37.9899 40.4932 38.0599C38.5332 39.1899 36.8632 41.6299 36.5432 44.0099C36.4932 44.3399 36.7232 44.6399 37.0432 44.6899C37.0532 44.6899 37.0632 44.6899 37.0732 44.6899C37.3832 44.7199 37.6732 44.4899 37.7132 44.1699C38.0232 41.9199 39.8132 39.5099 41.6932 38.8099C43.6832 38.0699 46.0832 38.5399 47.6632 39.9799C49.2432 41.4199 49.9632 43.7899 49.4532 45.8899C49.3732 46.2099 49.5732 46.5399 49.8832 46.6199C49.9132 46.6299 49.9432 46.6299 49.9732 46.6299C50.2632 46.6599 50.5332 46.4699 50.6032 46.1699C51.1732 43.7999 50.4332 41.1299 48.7632 39.3899C48.9032 39.3499 49.0332 39.2499 49.1132 39.1099C49.5032 38.4099 50.0432 37.8299 50.6932 37.4299C52.0832 36.5799 53.9532 36.5699 55.3432 37.4099C56.6732 38.2099 57.6832 40.2899 57.5932 42.0399C57.5732 42.3599 57.8132 42.6399 58.1232 42.6699C58.1332 42.6699 58.1432 42.6699 58.1532 42.6699C58.4832 42.6899 58.7532 42.4299 58.7732 42.0999C58.9032 39.9099 57.6532 37.3899 55.9632 36.3699ZM35.8732 29.8499C36.2032 29.6899 36.5932 29.6299 37.0132 29.6699C37.2032 29.6899 37.3932 29.7299 37.5932 29.7799C37.9032 29.8699 38.1532 29.9899 38.3532 30.1499C38.9932 30.6499 39.1832 31.6799 38.7632 32.4099C38.3432 33.1399 37.3832 33.5099 36.5632 33.2599C36.4232 33.2199 36.2832 33.2299 36.1632 33.2799C36.1032 33.2199 36.0332 33.1699 35.9532 33.1399C35.3232 32.8799 34.8732 32.2099 34.8532 31.5199C34.8432 30.8299 35.2632 30.1399 35.8732 29.8499ZM42.1532 34.6699C42.1332 33.7299 42.6932 32.7899 43.5232 32.3899C43.9632 32.1799 44.4932 32.0999 45.0532 32.1499C45.3032 32.1699 45.5632 32.2199 45.8232 32.2999C46.2332 32.4199 46.5732 32.5899 46.8332 32.7899C47.7132 33.4699 47.9632 34.8799 47.4032 35.8699C46.8432 36.8599 45.5332 37.3599 44.4332 37.0199C44.2532 36.9599 44.0732 36.9999 43.9232 37.0999C43.8632 36.9999 43.7632 36.9099 43.6432 36.8599C42.7932 36.5099 42.1732 35.6099 42.1532 34.6699ZM52.3832 31.9999C52.6032 31.8899 52.8732 31.8099 53.1932 31.7799C53.8532 31.7199 54.4432 31.8499 54.8732 32.1699C55.4232 32.5799 55.7032 33.3299 55.5632 34.0099C55.4232 34.6899 54.8532 35.2499 54.1932 35.3899C54.1032 35.4099 54.0332 35.4399 53.9632 35.4899C53.8832 35.4399 53.7932 35.3999 53.6932 35.3899C53.6532 35.3899 53.6132 35.3899 53.5732 35.3899C52.7232 35.4799 51.8432 34.9399 51.5632 34.1399C51.2832 33.3499 51.6632 32.3699 52.3832 31.9999Z" fill="#1C1D2D"/>
<path d="M61.9832 28.47C59.8232 24.96 56.5232 22.28 52.6932 20.91C50.3032 20.05 47.7132 19.71 45.1832 19.61C41.4932 19.47 37.6232 19.84 34.2432 21.44C33.3132 21.88 32.4332 22.43 31.6232 23.06C25.1632 28.31 22.1432 39.25 26.8032 46.63C28.8532 49.88 32.2132 52.08 35.6832 53.48C39.3432 54.96 43.3632 55.69 47.2932 55.63C51.3132 55.56 55.3132 54.61 58.5832 52.13C60.2732 50.85 61.6932 49.18 62.7132 47.3C63.8232 45.25 64.3532 43.1 64.6032 40.78C65.0532 36.5 64.2432 32.14 61.9832 28.47ZM59.6132 48.71C57.1232 51.69 53.4432 53.24 49.6932 53.68C46.2332 54.09 42.6232 53.72 39.2732 52.79C35.9032 51.85 32.5032 50.31 30.0032 47.77C24.3332 42 25.8632 32.25 30.7032 26.45C31.3232 25.71 32.0132 25.05 32.7532 24.44C37.1532 20.98 43.5132 20.99 48.7732 21.76C52.4932 22.31 56.0332 24.09 58.6032 26.91C61.1832 29.74 62.6532 33.39 62.9232 37.23C63.2232 41.33 62.2632 45.54 59.6132 48.71Z" fill="#1C1D2D"/>
<path d="M43.6632 50.39C28.9232 50.36 15.7732 49.77 1.82321 49.55C1.82321 49.55 1.57321 75.3 0.60321 84.1101C13.8132 84.9501 30.4332 84.37 43.6432 85.21C44.6632 64.11 43.6632 50.39 43.6632 50.39Z" fill="#34B3E8"/>
<path d="M43.6632 49.79C29.7132 49.76 15.7732 49.17 1.82322 48.95C1.50322 48.94 1.23322 49.23 1.22322 49.55C1.13322 58.47 0.973222 67.4 0.543222 76.31C0.423222 78.91 0.283222 81.51 0.00322197 84.1C-0.036778 84.43 0.303222 84.68 0.603222 84.7C14.9332 85.6 29.3132 84.9 43.6432 85.8C43.9732 85.82 44.2232 85.51 44.2432 85.2C44.7932 73.65 45.1032 61.94 44.2732 50.39C44.2232 49.63 43.0232 49.62 43.0832 50.39C43.9232 61.94 43.6132 73.65 43.0532 85.2C43.2532 85 43.4532 84.8 43.6532 84.6C29.3232 83.7 14.9432 84.4 0.613222 83.5C0.813222 83.7 1.01322 83.9 1.21322 84.1C1.76322 78.95 1.88322 73.75 2.04322 68.58C2.20322 63.32 2.31322 58.07 2.39322 52.81C2.41322 51.72 2.42322 50.63 2.43322 49.54C2.23322 49.74 2.03322 49.94 1.83322 50.14C15.7832 50.37 29.7232 50.95 43.6732 50.98C44.4332 50.99 44.4332 49.8 43.6632 49.79Z" fill="#1B1D2E"/>
<path d="M16.1332 58.55C16.1332 60.58 16.1332 62.61 16.1332 64.63C19.6832 64.53 22.8032 64.66 26.3232 65.04C26.0232 62.62 26.5032 60.87 26.2932 58.54C22.7332 58.39 16.1332 58.55 16.1332 58.55Z" fill="#FAB738"/>
<path d="M15.5332 58.55C15.5332 60.58 15.5332 62.61 15.5332 64.63C15.5332 64.95 15.8032 65.23 16.1332 65.23C19.5432 65.14 22.9332 65.28 26.3232 65.64C26.6232 65.67 26.9532 65.34 26.9232 65.04C26.6732 62.87 27.0732 60.71 26.8932 58.54C26.8632 58.21 26.6432 57.96 26.2932 57.94C22.9132 57.79 19.5132 57.86 16.1332 57.94C15.3732 57.96 15.3632 59.15 16.1332 59.13C19.5132 59.05 22.9132 58.98 26.2932 59.13C26.0932 58.93 25.8932 58.73 25.6932 58.53C25.8732 60.7 25.4732 62.86 25.7232 65.03C25.9232 64.83 26.1232 64.63 26.3232 64.43C22.9332 64.07 19.5332 63.93 16.1332 64.02C16.3332 64.22 16.5332 64.42 16.7332 64.62C16.7332 62.59 16.7332 60.56 16.7332 58.54C16.7232 57.78 15.5332 57.78 15.5332 58.55Z" fill="#1B1D2E"/>
<path d="M11.4532 70.23C18.3132 70.14 25.1732 70.41 32.0132 71.03L11.4532 70.23Z" fill="white"/>
<path d="M11.4532 70.8199C18.3132 70.7399 25.1732 70.9999 32.0132 71.6199C32.7732 71.6899 32.7732 70.4999 32.0132 70.4299C25.1832 69.8099 18.3232 69.5399 11.4532 69.6299C10.6932 69.6399 10.6932 70.8299 11.4532 70.8199Z" fill="#1B1D2E"/>
<path d="M43.6332 85.4201C43.5732 86.3001 70.0232 76.0601 70.0232 76.0601C70.9732 56.5201 70.5532 41.8201 70.5532 41.8201C61.5632 43.7401 42.4832 51.5401 43.4732 50.4801C43.5532 50.3801 44.8832 66.4001 43.6332 85.4201Z" fill="#34B3E8"/>
<g opacity="0.2">
<path opacity="0.2" d="M44.1832 83.95C50.3332 80.53 54.8032 74.59 58.0232 68.24C61.2432 61.89 63.3832 55.06 66.0732 48.46C67.0432 46.08 68.1432 43.65 70.0832 42C70.0832 42 70.7132 72.11 70.1932 75.85L54.2032 82.01L46.0832 85.22L43.7232 85.49L44.1832 83.95Z" fill="#415BA6"/>
</g>
<path d="M43.0432 85.42C43.1832 86.61 45.0132 85.82 45.6632 85.63C47.7232 85.01 49.7432 84.28 51.7632 83.55C56.7632 81.76 61.7232 79.88 66.6832 77.99C67.8532 77.54 69.0132 77.1 70.1832 76.65C70.4432 76.55 70.6032 76.36 70.6232 76.08C71.1732 64.69 71.4732 53.24 71.1532 41.84C71.1432 41.44 70.7832 41.18 70.4032 41.27C64.8532 42.47 59.4532 44.47 54.1132 46.36C51.7032 47.21 49.3132 48.09 46.9032 48.93C46.1132 49.21 45.3232 49.48 44.5332 49.73C44.3032 49.8 44.0232 49.84 43.8032 49.94C43.7332 49.97 43.5832 49.95 43.5232 50C43.6732 49.88 44.1932 50.58 43.9132 50.91C43.6732 50.94 43.4332 50.97 43.1932 51C42.7432 50.78 42.9932 50.55 42.9432 50.75C42.9032 50.91 42.9832 51.18 43.0032 51.34C43.0632 52.05 43.1132 52.75 43.1532 53.46C43.3132 56.01 43.4232 58.56 43.4932 61.12C43.6932 69.22 43.5632 77.33 43.0432 85.42C42.9932 86.18 44.1832 86.18 44.2332 85.42C44.7732 77 44.9032 68.56 44.6332 60.13C44.5532 57.66 44.4432 55.2 44.2732 52.74C44.2332 52.21 44.3932 50.28 43.7732 49.97C43.5532 49.86 43.2232 49.85 43.0532 50.06C42.2732 50.98 43.5332 51.22 44.1832 51.05C45.6032 50.7 46.9832 50.14 48.3532 49.65C53.2132 47.92 58.0632 46.14 62.9832 44.56C65.5232 43.74 68.0932 42.96 70.7032 42.39C70.4532 42.2 70.2032 42.01 69.9532 41.82C70.2732 53.22 69.9732 64.67 69.4232 76.06C69.5732 75.87 69.7132 75.68 69.8632 75.49C62.4632 78.35 55.0532 81.23 47.5332 83.77C46.6732 84.06 45.8032 84.35 44.9332 84.6C44.6632 84.68 44.3332 84.71 44.0832 84.82C44.0132 84.85 43.8532 84.83 43.7932 84.88C43.8432 84.84 43.8132 84.86 43.8032 84.87C43.7932 84.87 43.7732 84.87 43.7632 84.87C43.4832 84.85 43.6432 85.03 44.2332 85.41C44.1432 84.67 42.9432 84.66 43.0432 85.42Z" fill="#1B1D2E"/>
</svg>
